<mxfile host="app.diagrams.net" modified="2024-06-20T23:04:21.790Z" agent="Mozilla/5.0 (Windows NT 10.0; Win64; x64) AppleWebKit/537.36 (KHTML, like Gecko) Chrome/126.0.0.0 Safari/537.36" etag="LDs49JLebnOebeMfkQCw" version="24.5.5" type="github">
  <diagram name="Página-1" id="J6WMUb2AqTly3imKSqnm">
    <mxGraphModel dx="1257" dy="609" grid="1" gridSize="10" guides="1" tooltips="1" connect="1" arrows="1" fold="1" page="1" pageScale="1" pageWidth="827" pageHeight="1169" math="0" shadow="0">
      <root>
        <mxCell id="0" />
        <mxCell id="1" parent="0" />
        <mxCell id="ZiHelth5M9JxswqohcBc-4" style="edgeStyle=orthogonalEdgeStyle;rounded=0;orthogonalLoop=1;jettySize=auto;html=1;exitX=0.5;exitY=1;exitDx=0;exitDy=0;entryX=0.5;entryY=0;entryDx=0;entryDy=0;" edge="1" parent="1" source="ZiHelth5M9JxswqohcBc-2" target="ZiHelth5M9JxswqohcBc-3">
          <mxGeometry relative="1" as="geometry" />
        </mxCell>
        <mxCell id="ZiHelth5M9JxswqohcBc-2" value="INICIO" style="ellipse;whiteSpace=wrap;html=1;" vertex="1" parent="1">
          <mxGeometry x="140" y="20" width="70" height="50" as="geometry" />
        </mxCell>
        <mxCell id="ZiHelth5M9JxswqohcBc-53" style="edgeStyle=orthogonalEdgeStyle;rounded=0;orthogonalLoop=1;jettySize=auto;html=1;" edge="1" parent="1" source="ZiHelth5M9JxswqohcBc-3" target="ZiHelth5M9JxswqohcBc-52">
          <mxGeometry relative="1" as="geometry" />
        </mxCell>
        <mxCell id="ZiHelth5M9JxswqohcBc-3" value="Especificações da UART" style="shape=parallelogram;perimeter=parallelogramPerimeter;whiteSpace=wrap;html=1;fixedSize=1;" vertex="1" parent="1">
          <mxGeometry x="92.5" y="120" width="165" height="60" as="geometry" />
        </mxCell>
        <mxCell id="ZiHelth5M9JxswqohcBc-8" value="&lt;h1 style=&quot;margin-top: 0px;&quot;&gt;Especificações&lt;/h1&gt;&lt;p&gt;Baund Rate -&amp;gt; 9600 bps&amp;nbsp;&lt;/p&gt;&lt;p&gt;&lt;span style=&quot;background-color: initial;&quot;&gt;9 bits (1 start bit, 8 bits de dados e 1 stop bit)&lt;/span&gt;&lt;/p&gt;&lt;p&gt;&lt;span style=&quot;background-color: initial;&quot;&gt;Enviar ou Receber&lt;/span&gt;&lt;/p&gt;&lt;p&gt;&lt;span style=&quot;background-color: initial;&quot;&gt;&lt;br&gt;&lt;/span&gt;&lt;/p&gt;&lt;p&gt;&lt;br&gt;&lt;/p&gt;" style="text;html=1;whiteSpace=wrap;overflow=hidden;rounded=0;" vertex="1" parent="1">
          <mxGeometry x="265" y="80" width="190" height="110" as="geometry" />
        </mxCell>
        <mxCell id="ZiHelth5M9JxswqohcBc-42" style="edgeStyle=orthogonalEdgeStyle;rounded=0;orthogonalLoop=1;jettySize=auto;html=1;exitX=0.5;exitY=1;exitDx=0;exitDy=0;entryX=0.5;entryY=0;entryDx=0;entryDy=0;" edge="1" parent="1" source="ZiHelth5M9JxswqohcBc-10" target="ZiHelth5M9JxswqohcBc-37">
          <mxGeometry relative="1" as="geometry" />
        </mxCell>
        <mxCell id="ZiHelth5M9JxswqohcBc-50" style="edgeStyle=orthogonalEdgeStyle;rounded=0;orthogonalLoop=1;jettySize=auto;html=1;exitX=1;exitY=0.5;exitDx=0;exitDy=0;entryX=0;entryY=0.5;entryDx=0;entryDy=0;" edge="1" parent="1" source="ZiHelth5M9JxswqohcBc-10" target="ZiHelth5M9JxswqohcBc-11">
          <mxGeometry relative="1" as="geometry" />
        </mxCell>
        <mxCell id="ZiHelth5M9JxswqohcBc-10" value="Data[0] = 0?" style="rhombus;whiteSpace=wrap;html=1;" vertex="1" parent="1">
          <mxGeometry x="130" y="405" width="90" height="80" as="geometry" />
        </mxCell>
        <mxCell id="ZiHelth5M9JxswqohcBc-18" style="edgeStyle=orthogonalEdgeStyle;rounded=0;orthogonalLoop=1;jettySize=auto;html=1;exitX=0.5;exitY=1;exitDx=0;exitDy=0;entryX=0.5;entryY=0;entryDx=0;entryDy=0;" edge="1" parent="1" source="ZiHelth5M9JxswqohcBc-11" target="ZiHelth5M9JxswqohcBc-17">
          <mxGeometry relative="1" as="geometry" />
        </mxCell>
        <mxCell id="ZiHelth5M9JxswqohcBc-11" value="Buffer &amp;lt;- Data[1..7]" style="rounded=0;whiteSpace=wrap;html=1;" vertex="1" parent="1">
          <mxGeometry x="265" y="420" width="115" height="50" as="geometry" />
        </mxCell>
        <mxCell id="ZiHelth5M9JxswqohcBc-22" style="edgeStyle=orthogonalEdgeStyle;rounded=0;orthogonalLoop=1;jettySize=auto;html=1;exitX=1;exitY=0.5;exitDx=0;exitDy=0;entryX=0;entryY=0.5;entryDx=0;entryDy=0;" edge="1" parent="1" source="ZiHelth5M9JxswqohcBc-17" target="ZiHelth5M9JxswqohcBc-21">
          <mxGeometry relative="1" as="geometry" />
        </mxCell>
        <mxCell id="ZiHelth5M9JxswqohcBc-38" style="edgeStyle=orthogonalEdgeStyle;rounded=0;orthogonalLoop=1;jettySize=auto;html=1;exitX=0;exitY=0.5;exitDx=0;exitDy=0;entryX=1;entryY=0.5;entryDx=0;entryDy=0;" edge="1" parent="1" source="ZiHelth5M9JxswqohcBc-17" target="ZiHelth5M9JxswqohcBc-37">
          <mxGeometry relative="1" as="geometry">
            <mxPoint x="237.5" y="555" as="targetPoint" />
          </mxGeometry>
        </mxCell>
        <mxCell id="ZiHelth5M9JxswqohcBc-17" value="Data[8] = 1?" style="rhombus;whiteSpace=wrap;html=1;" vertex="1" parent="1">
          <mxGeometry x="277.5" y="515" width="90" height="80" as="geometry" />
        </mxCell>
        <mxCell id="ZiHelth5M9JxswqohcBc-19" value="Sim" style="text;html=1;align=center;verticalAlign=middle;whiteSpace=wrap;rounded=0;" vertex="1" parent="1">
          <mxGeometry x="205" y="420" width="60" height="30" as="geometry" />
        </mxCell>
        <mxCell id="ZiHelth5M9JxswqohcBc-31" style="edgeStyle=orthogonalEdgeStyle;rounded=0;orthogonalLoop=1;jettySize=auto;html=1;exitX=0.5;exitY=0;exitDx=0;exitDy=0;entryX=0.5;entryY=1;entryDx=0;entryDy=0;" edge="1" parent="1" source="ZiHelth5M9JxswqohcBc-21" target="ZiHelth5M9JxswqohcBc-30">
          <mxGeometry relative="1" as="geometry" />
        </mxCell>
        <mxCell id="ZiHelth5M9JxswqohcBc-21" value="Buffer pronto para ser analisado" style="rounded=0;whiteSpace=wrap;html=1;" vertex="1" parent="1">
          <mxGeometry x="415" y="530" width="145" height="50" as="geometry" />
        </mxCell>
        <mxCell id="ZiHelth5M9JxswqohcBc-24" value="Sim" style="text;html=1;align=center;verticalAlign=middle;whiteSpace=wrap;rounded=0;" vertex="1" parent="1">
          <mxGeometry x="355" y="525" width="60" height="30" as="geometry" />
        </mxCell>
        <mxCell id="ZiHelth5M9JxswqohcBc-30" value="FIM" style="ellipse;whiteSpace=wrap;html=1;" vertex="1" parent="1">
          <mxGeometry x="452.5" y="380" width="70" height="40" as="geometry" />
        </mxCell>
        <mxCell id="ZiHelth5M9JxswqohcBc-55" style="edgeStyle=orthogonalEdgeStyle;rounded=0;orthogonalLoop=1;jettySize=auto;html=1;exitX=0;exitY=0.25;exitDx=0;exitDy=0;" edge="1" parent="1" source="ZiHelth5M9JxswqohcBc-37">
          <mxGeometry relative="1" as="geometry">
            <mxPoint x="175" y="380" as="targetPoint" />
            <Array as="points">
              <mxPoint x="108" y="543" />
              <mxPoint x="108" y="380" />
            </Array>
          </mxGeometry>
        </mxCell>
        <mxCell id="ZiHelth5M9JxswqohcBc-37" value="Informa Erro de Comunicação" style="shape=document;whiteSpace=wrap;html=1;boundedLbl=1;" vertex="1" parent="1">
          <mxGeometry x="127.5" y="530" width="95" height="50" as="geometry" />
        </mxCell>
        <mxCell id="ZiHelth5M9JxswqohcBc-41" value="Não" style="text;html=1;align=center;verticalAlign=middle;whiteSpace=wrap;rounded=0;" vertex="1" parent="1">
          <mxGeometry x="222.5" y="525" width="60" height="30" as="geometry" />
        </mxCell>
        <mxCell id="ZiHelth5M9JxswqohcBc-44" value="Não" style="text;html=1;align=center;verticalAlign=middle;whiteSpace=wrap;rounded=0;" vertex="1" parent="1">
          <mxGeometry x="162.5" y="485" width="60" height="30" as="geometry" />
        </mxCell>
        <mxCell id="ZiHelth5M9JxswqohcBc-54" style="edgeStyle=orthogonalEdgeStyle;rounded=0;orthogonalLoop=1;jettySize=auto;html=1;entryX=0.5;entryY=0;entryDx=0;entryDy=0;" edge="1" parent="1" source="ZiHelth5M9JxswqohcBc-52" target="ZiHelth5M9JxswqohcBc-10">
          <mxGeometry relative="1" as="geometry" />
        </mxCell>
        <mxCell id="ZiHelth5M9JxswqohcBc-58" style="edgeStyle=orthogonalEdgeStyle;rounded=0;orthogonalLoop=1;jettySize=auto;html=1;exitX=1;exitY=0.5;exitDx=0;exitDy=0;entryX=0;entryY=0.5;entryDx=0;entryDy=0;" edge="1" parent="1" source="ZiHelth5M9JxswqohcBc-52" target="ZiHelth5M9JxswqohcBc-57">
          <mxGeometry relative="1" as="geometry" />
        </mxCell>
        <mxCell id="ZiHelth5M9JxswqohcBc-52" value="Enviar?" style="rhombus;whiteSpace=wrap;html=1;" vertex="1" parent="1">
          <mxGeometry x="130" y="230" width="90" height="80" as="geometry" />
        </mxCell>
        <mxCell id="ZiHelth5M9JxswqohcBc-56" value="Não" style="text;html=1;align=center;verticalAlign=middle;whiteSpace=wrap;rounded=0;" vertex="1" parent="1">
          <mxGeometry x="160" y="330" width="60" height="30" as="geometry" />
        </mxCell>
        <mxCell id="ZiHelth5M9JxswqohcBc-61" style="edgeStyle=orthogonalEdgeStyle;rounded=0;orthogonalLoop=1;jettySize=auto;html=1;exitX=1;exitY=0.5;exitDx=0;exitDy=0;entryX=0;entryY=0.5;entryDx=0;entryDy=0;" edge="1" parent="1" source="ZiHelth5M9JxswqohcBc-57" target="ZiHelth5M9JxswqohcBc-60">
          <mxGeometry relative="1" as="geometry" />
        </mxCell>
        <mxCell id="ZiHelth5M9JxswqohcBc-57" value="Data[] = 0 &amp;amp; Mensagem &amp;amp; 1" style="rounded=0;whiteSpace=wrap;html=1;" vertex="1" parent="1">
          <mxGeometry x="265" y="245" width="115" height="50" as="geometry" />
        </mxCell>
        <mxCell id="ZiHelth5M9JxswqohcBc-59" value="Sim" style="text;html=1;align=center;verticalAlign=middle;whiteSpace=wrap;rounded=0;" vertex="1" parent="1">
          <mxGeometry x="210" y="240" width="60" height="30" as="geometry" />
        </mxCell>
        <mxCell id="ZiHelth5M9JxswqohcBc-62" style="edgeStyle=orthogonalEdgeStyle;rounded=0;orthogonalLoop=1;jettySize=auto;html=1;exitX=0.5;exitY=1;exitDx=0;exitDy=0;entryX=0.5;entryY=0;entryDx=0;entryDy=0;" edge="1" parent="1" source="ZiHelth5M9JxswqohcBc-60" target="ZiHelth5M9JxswqohcBc-30">
          <mxGeometry relative="1" as="geometry" />
        </mxCell>
        <mxCell id="ZiHelth5M9JxswqohcBc-60" value="Buffer pronto para ser enviado" style="rounded=0;whiteSpace=wrap;html=1;" vertex="1" parent="1">
          <mxGeometry x="415" y="245" width="145" height="50" as="geometry" />
        </mxCell>
      </root>
    </mxGraphModel>
  </diagram>
</mxfile>
